# xmcd
#
# Track frame offsets: 
#        150
#        16437
#        30822
#        42000
#        52126
#        65359
#        78711
#        92195
#        106807
#        117695
#        133167
#        146484
#        156813
#        169795
#        180332
#        191670
#        199936
#        206974
#        218524
#        234927
#        245795
#        250349
#        261384
#        269270
#        276802
#        288767
#        299935
#
# Disc length: 4154 seconds
#
# Revision: 0
# Processed by: cddbd v1.5.2PL0 Copyright (c) Steve Scherf et al.
# Submitted via: ExactAudioCopy v0.95b3
#
DISCID=a210381b
DTITLE=Roy Orbison  - Orbison 1955 - 1965 Disc 7
DYEAR=1900
DGENRE=
TTITLE0=Oh Pretty Woman
TTITLE1=Twenty Two Days
TTITLE2=Love Hurts
TTITLE3=Nightlife
TTITLE4=(They Call You) Gigolette
TTITLE5=Borne On The Wind (Different Vocal)
TTITLE6=Pretty Paper
TTITLE7=Indian Wedding
TTITLE8=Blue Avenue
TTITLE9=Here Comes That Song Again
TTITLE10=It's Over
TTITLE11=Todays Teardrops
TTITLE12=Blue Angel
TTITLE13=I'll  Say Its My Fault
TTITLE14=With The Bug (Mo 546-2)
TTITLE15=Double Date (takes 1&2)
TTITLE16=Double Date (take 5)
TTITLE17=Double Date (take6)
TTITLE18=Paper Boy (takes 14\\16)
TTITLE19=Paper Boy (take 17)
TTITLE20=Paper Boy (take 18)
TTITLE21=Paper Boy (take 19)
TTITLE22=With The Bug (take 1)
TTITLE23=With The Bug (take 2)
TTITLE24=With The Bug (take 3)
TTITLE25=With The Bug (take 4)
TTITLE26=With The Bug (take 9)
EXTD=
EXTT0=
EXTT1=
EXTT2=
EXTT3=
EXTT4=
EXTT5=
EXTT6=
EXTT7=
EXTT8=
EXTT9=
EXTT10=
EXTT11=
EXTT12=
EXTT13=
EXTT14=
EXTT15=
EXTT16=
EXTT17=
EXTT18=
EXTT19=
EXTT20=
EXTT21=
EXTT22=
EXTT23=
EXTT24=
EXTT25=
EXTT26=
PLAYORDER=
